<?xml version="1.0" encoding="utf-8"?>
<!-- Generator: Adobe Illustrator 16.0.0, SVG Export Plug-In . SVG Version: 6.00 Build 0)  -->
<!DOCTYPE svg PUBLIC "-//W3C//DTD SVG 1.1//EN" "http://www.w3.org/Graphics/SVG/1.1/DTD/svg11.dtd">
<svg version="1.1" xmlns="http://www.w3.org/2000/svg" xmlns:xlink="http://www.w3.org/1999/xlink" x="0px" y="0px" width="108px"
	 height="108px" viewBox="0 0 108 108" enable-background="new 0 0 108 108" xml:space="preserve">
<g id="Layer_2">
	
		<rect x="66.832" y="20.809" transform="matrix(0.711 -0.7032 0.7032 0.711 -0.9484 58.64)" fill="#D60B2D" width="8.077" height="19.329"/>
	<polygon fill="#59514F" points="20,69.502 60.25,29.702 65.771,35.167 25,75.583 	"/>
	<polygon fill="#807E7D" points="25.75,75.583 67,36.75 72.334,40.375 31.25,81.583 	"/>
</g>
<g id="Layer_1">
	<polygon fill="#D6A72D" points="14.125,84.75 18.75,71.625 30.375,82.75 15.625,87.25 	"/>
	<g>
		<g>
			<g>
				<path fill="#D60B2D" d="M76.328,38.642l-1.886-1.889l3.101-3.096c-0.062-0.149-0.123-0.296-0.263-0.436l-9.166-9.009
					c-0.14-0.14-0.28-0.28-0.429-0.342l-3.1,3.095L62.7,25.076l3.53-3.524c0.431-0.43,1.002-0.721,1.549-0.776l0,0
					c0.856-0.088,1.821,0.275,2.59,1.045l9.141,9.244c1.258,1.259,1.383,3.021,0.263,4.138L76.328,38.642z"/>
			</g>
			<path d="M74.926,40.251l-13.76-13.783L17.068,70.491l0.07,0.069l-0.172,0.173l-6.384,19.014L30.5,84.462l0.258-0.259l0.07,0.07
				L74.926,40.251z M70.792,40.675L31.258,80.142l-3.32-3.418L67.52,37.397L70.792,40.675z M60.734,30.6l3.037,3.381L24.528,73.302
				l-3.327-3.236L60.734,30.6z M14.865,85.682L14.865,85.682L14.865,85.682L14.865,85.682z M18.509,84.769l-2.515-2.519l3.169-9.661
				l9.429,9.445L18.509,84.769z"/>
		</g>
	</g>
	<path d="M102.625,77"/>
	<polyline fill="#3BAEDD" points="44.694,42.986 78.425,76.724 77.622,70.502 47.25,40.375 	"/>
	<line fill="#3BAEDD" x1="86.81" y1="69.502" x2="56.438" y2="39.375"/>
	<polyline fill="#4BD1F2" points="47.112,40.431 77.538,70.433 84.43,72 49.527,37.988 	"/>
	<polyline fill="#00C364" points="52.231,34.91 89.064,71.75 88.188,64.957 55.021,32.059 	"/>
	<polyline fill="#00F160" points="54.872,32.12 88.096,64.881 95.621,66.593 57.51,29.452 	"/>
</g>
</svg>
